<?xml version="1.0" encoding="UTF-8" standalone="no"?>
<!DOCTYPE svg PUBLIC "-//W3C//DTD SVG 1.1//EN"
 "http://www.w3.org/Graphics/SVG/1.1/DTD/svg11.dtd">
<!-- Generated by graphviz version 2.40.1 (0)
 -->
<!-- Title: display_state Pages: 1 -->
<svg width="262pt" height="555pt"
 viewBox="0.00 0.00 262.04 555.00" xmlns="http://www.w3.org/2000/svg" xmlns:xlink="http://www.w3.org/1999/xlink">
<g id="graph0" class="graph" transform="scale(1 1) rotate(0) translate(4 551)">
<title>display_state</title>
<polygon fill="#ffffff" stroke="transparent" points="-4,4 -4,-551 258.0375,-551 258.0375,4 -4,4"/>
<!-- turn on display -->
<g id="node1" class="node">
<title>turn on display</title>
<ellipse fill="none" stroke="#000000" cx="126.4435" cy="-529" rx="67.6881" ry="18"/>
<text text-anchor="middle" x="126.4435" y="-525.3" font-family="Times,serif" font-size="14.00" fill="#000000">turn on display</text>
</g>
<!-- turn on display&#45;&gt;turn on display -->
<g id="edge1" class="edge">
<title>turn on display&#45;&gt;turn on display</title>
<path fill="none" stroke="#000000" d="M189.5236,-535.5127C202.6199,-534.8271 212.0375,-532.6563 212.0375,-529 212.0375,-526.3721 207.1724,-524.5115 199.573,-523.4182"/>
<polygon fill="#000000" stroke="#000000" points="199.8038,-519.9247 189.5236,-522.4873 199.1581,-526.8949 199.8038,-519.9247"/>
<text text-anchor="middle" x="233.0375" y="-525.3" font-family="Times,serif" font-size="14.00" fill="#000000">5 times</text>
</g>
<!-- turn off display -->
<g id="node2" class="node">
<title>turn off display</title>
<ellipse fill="none" stroke="#000000" cx="78.4435" cy="-456" rx="68.4888" ry="18"/>
<text text-anchor="middle" x="78.4435" y="-452.3" font-family="Times,serif" font-size="14.00" fill="#000000">turn off display</text>
</g>
<!-- turn on display&#45;&gt;turn off display -->
<g id="edge2" class="edge">
<title>turn on display&#45;&gt;turn off display</title>
<path fill="none" stroke="#000000" d="M114.5783,-510.9551C108.8819,-502.2917 101.9477,-491.7461 95.6828,-482.2182"/>
<polygon fill="#000000" stroke="#000000" points="98.5907,-480.27 90.1722,-473.8374 92.7418,-484.1159 98.5907,-480.27"/>
</g>
<!-- set program on -->
<g id="node3" class="node">
<title>set program on</title>
<ellipse fill="none" stroke="#000000" cx="76.4435" cy="-383" rx="66.8882" ry="18"/>
<text text-anchor="middle" x="76.4435" y="-379.3" font-family="Times,serif" font-size="14.00" fill="#000000">set program on</text>
</g>
<!-- turn off display&#45;&gt;set program on -->
<g id="edge3" class="edge">
<title>turn off display&#45;&gt;set program on</title>
<path fill="none" stroke="#000000" d="M77.9491,-437.9551C77.7279,-429.8828 77.462,-420.1764 77.2156,-411.1817"/>
<polygon fill="#000000" stroke="#000000" points="80.7118,-410.9907 76.9391,-401.0904 73.7144,-411.1825 80.7118,-410.9907"/>
</g>
<!-- turn off program -->
<g id="node4" class="node">
<title>turn off program</title>
<ellipse fill="none" stroke="#000000" cx="73.4435" cy="-310" rx="73.387" ry="18"/>
<text text-anchor="middle" x="73.4435" y="-306.3" font-family="Times,serif" font-size="14.00" fill="#000000">turn off program</text>
</g>
<!-- set program on&#45;&gt;turn off program -->
<g id="edge4" class="edge">
<title>set program on&#45;&gt;turn off program</title>
<path fill="none" stroke="#000000" d="M75.7019,-364.9551C75.3702,-356.8828 74.9713,-347.1764 74.6016,-338.1817"/>
<polygon fill="#000000" stroke="#000000" points="78.0947,-337.9382 74.1869,-328.0904 71.1006,-338.2257 78.0947,-337.9382"/>
</g>
<!-- set scan key -->
<g id="node5" class="node">
<title>set scan key</title>
<ellipse fill="none" stroke="#000000" cx="76.4435" cy="-237" rx="55.4913" ry="18"/>
<text text-anchor="middle" x="76.4435" y="-233.3" font-family="Times,serif" font-size="14.00" fill="#000000">set scan key</text>
</g>
<!-- turn off program&#45;&gt;set scan key -->
<g id="edge5" class="edge">
<title>turn off program&#45;&gt;set scan key</title>
<path fill="none" stroke="#000000" d="M74.1851,-291.9551C74.5168,-283.8828 74.9157,-274.1764 75.2853,-265.1817"/>
<polygon fill="#000000" stroke="#000000" points="78.7864,-265.2257 75.7,-255.0904 71.7923,-264.9382 78.7864,-265.2257"/>
</g>
<!-- keyboard scan -->
<g id="node6" class="node">
<title>keyboard scan</title>
<ellipse fill="none" stroke="#000000" cx="81.4435" cy="-164" rx="64.189" ry="18"/>
<text text-anchor="middle" x="81.4435" y="-160.3" font-family="Times,serif" font-size="14.00" fill="#000000">keyboard scan</text>
</g>
<!-- set scan key&#45;&gt;keyboard scan -->
<g id="edge6" class="edge">
<title>set scan key&#45;&gt;keyboard scan</title>
<path fill="none" stroke="#000000" d="M77.6794,-218.9551C78.2323,-210.8828 78.8972,-201.1764 79.5132,-192.1817"/>
<polygon fill="#000000" stroke="#000000" points="83.0128,-192.3062 80.2044,-182.0904 76.0292,-191.8278 83.0128,-192.3062"/>
</g>
<!-- set bypass led -->
<g id="node7" class="node">
<title>set bypass led</title>
<ellipse fill="none" stroke="#000000" cx="83.4435" cy="-91" rx="61.99" ry="18"/>
<text text-anchor="middle" x="83.4435" y="-87.3" font-family="Times,serif" font-size="14.00" fill="#000000">set bypass led</text>
</g>
<!-- keyboard scan&#45;&gt;set bypass led -->
<g id="edge7" class="edge">
<title>keyboard scan&#45;&gt;set bypass led</title>
<path fill="none" stroke="#000000" d="M81.9379,-145.9551C82.159,-137.8828 82.425,-128.1764 82.6714,-119.1817"/>
<polygon fill="#000000" stroke="#000000" points="86.1726,-119.1825 82.9479,-109.0904 79.1752,-118.9907 86.1726,-119.1825"/>
</g>
<!-- turn off bypass led -->
<g id="node8" class="node">
<title>turn off bypass led</title>
<ellipse fill="none" stroke="#000000" cx="128.4435" cy="-18" rx="80.6858" ry="18"/>
<text text-anchor="middle" x="128.4435" y="-14.3" font-family="Times,serif" font-size="14.00" fill="#000000">turn off bypass led</text>
</g>
<!-- set bypass led&#45;&gt;turn off bypass led -->
<g id="edge8" class="edge">
<title>set bypass led&#45;&gt;turn off bypass led</title>
<path fill="none" stroke="#000000" d="M94.5671,-72.9551C99.853,-64.3801 106.2757,-53.9611 112.1016,-44.5102"/>
<polygon fill="#000000" stroke="#000000" points="115.1797,-46.1866 117.4478,-35.8374 109.2209,-42.5133 115.1797,-46.1866"/>
</g>
<!-- turn off bypass led&#45;&gt;turn on display -->
<g id="edge9" class="edge">
<title>turn off bypass led&#45;&gt;turn on display</title>
<path fill="none" stroke="#000000" d="M147.419,-35.5922C160.0902,-49.311 174.4435,-69.5787 174.4435,-91 174.4435,-456 174.4435,-456 174.4435,-456 174.4435,-473.9621 164.1722,-490.9271 153.1323,-503.9739"/>
<polygon fill="#000000" stroke="#000000" points="150.3721,-501.8073 146.244,-511.5649 155.556,-506.5113 150.3721,-501.8073"/>
</g>
</g>
</svg>
