<?xml version="1.0" encoding="UTF-8" standalone="no"?>
<!DOCTYPE svg PUBLIC "-//W3C//DTD SVG 1.1//EN"
 "http://www.w3.org/Graphics/SVG/1.1/DTD/svg11.dtd">
<!-- Generated by graphviz version 2.40.1 (0)
 -->
<!-- Title: keyb_state Pages: 1 -->
<svg width="290pt" height="350pt"
 viewBox="0.00 0.00 290.50 350.00" xmlns="http://www.w3.org/2000/svg" xmlns:xlink="http://www.w3.org/1999/xlink">
<g id="graph0" class="graph" transform="scale(1 1) rotate(0) translate(4 346)">
<title>keyb_state</title>
<polygon fill="#ffffff" stroke="transparent" points="-4,4 -4,-346 286.4989,-346 286.4989,4 -4,4"/>
<!-- 0 -->
<g id="node1" class="node">
<title>0</title>
<ellipse fill="none" stroke="#000000" cx="102.4989" cy="-324" rx="27" ry="18"/>
<text text-anchor="middle" x="102.4989" y="-320.3" font-family="Times,serif" font-size="14.00" fill="#000000">0</text>
</g>
<!-- 0&#45;&gt;0 -->
<g id="edge1" class="edge">
<title>0&#45;&gt;0</title>
<path fill="none" stroke="#000000" d="M126.1135,-333.1461C137.472,-334.2753 147.4989,-331.2266 147.4989,-324 147.4989,-319.1447 142.9726,-316.1753 136.5572,-315.0918"/>
<polygon fill="#000000" stroke="#000000" points="136.1906,-311.5826 126.1135,-314.8539 136.0311,-318.5808 136.1906,-311.5826"/>
<text text-anchor="middle" x="180.9989" y="-320.3" font-family="Times,serif" font-size="14.00" fill="#000000"> &#160;no change</text>
</g>
<!-- 1 -->
<g id="node2" class="node">
<title>1</title>
<ellipse fill="none" stroke="#000000" cx="70.4989" cy="-222" rx="27" ry="18"/>
<text text-anchor="middle" x="70.4989" y="-218.3" font-family="Times,serif" font-size="14.00" fill="#000000">1</text>
</g>
<!-- 0&#45;&gt;1 -->
<g id="edge2" class="edge">
<title>0&#45;&gt;1</title>
<path fill="none" stroke="#000000" d="M76.7052,-317.9572C50.8971,-311.327 13.8579,-300.0185 5.4989,-288 -2.1143,-277.0539 -1.2703,-269.4872 5.4989,-258 12.2686,-246.512 24.1688,-238.4319 35.9525,-232.8806"/>
<polygon fill="#000000" stroke="#000000" points="37.4198,-236.0604 45.2777,-228.9539 34.7032,-229.6091 37.4198,-236.0604"/>
<text text-anchor="middle" x="26.9989" y="-276.8" font-family="Times,serif" font-size="14.00" fill="#000000">key</text>
<text text-anchor="middle" x="26.9989" y="-261.8" font-family="Times,serif" font-size="14.00" fill="#000000">pressed</text>
</g>
<!-- 1&#45;&gt;0 -->
<g id="edge3" class="edge">
<title>1&#45;&gt;0</title>
<path fill="none" stroke="#000000" d="M67.5407,-239.9866C66.055,-253.6191 65.6389,-272.5736 71.4989,-288 73.3551,-292.8864 76.1921,-297.5598 79.4105,-301.8261"/>
<polygon fill="#000000" stroke="#000000" points="76.7697,-304.1235 85.9122,-309.4776 82.1041,-299.5908 76.7697,-304.1235"/>
<text text-anchor="middle" x="95.9989" y="-276.8" font-family="Times,serif" font-size="14.00" fill="#000000">spurious</text>
<text text-anchor="middle" x="95.9989" y="-261.8" font-family="Times,serif" font-size="14.00" fill="#000000">press</text>
</g>
<!-- 2 -->
<g id="node3" class="node">
<title>2</title>
<ellipse fill="none" stroke="#000000" cx="129.4989" cy="-120" rx="27" ry="18"/>
<text text-anchor="middle" x="129.4989" y="-116.3" font-family="Times,serif" font-size="14.00" fill="#000000">2</text>
</g>
<!-- 1&#45;&gt;2 -->
<g id="edge4" class="edge">
<title>1&#45;&gt;2</title>
<path fill="none" stroke="#000000" d="M68.511,-203.929C67.8455,-189.9007 68.9152,-170.4684 77.4989,-156 82.4361,-147.6781 90.1361,-140.8196 98.1118,-135.4032"/>
<polygon fill="#000000" stroke="#000000" points="100.0693,-138.3084 106.7567,-130.0908 96.4044,-132.3444 100.0693,-138.3084"/>
<text text-anchor="middle" x="98.9989" y="-174.8" font-family="Times,serif" font-size="14.00" fill="#000000">still</text>
<text text-anchor="middle" x="98.9989" y="-159.8" font-family="Times,serif" font-size="14.00" fill="#000000">pressed</text>
</g>
<!-- 2&#45;&gt;0 -->
<g id="edge5" class="edge">
<title>2&#45;&gt;0</title>
<path fill="none" stroke="#000000" d="M130.9034,-138.0266C132.8123,-169.1944 134.5405,-234.9137 120.4989,-288 119.6412,-291.2426 118.4723,-294.5348 117.1391,-297.7441"/>
<polygon fill="#000000" stroke="#000000" points="113.8795,-296.4514 112.7934,-306.9904 120.2146,-299.429 113.8795,-296.4514"/>
<text text-anchor="middle" x="155.9989" y="-225.8" font-family="Times,serif" font-size="14.00" fill="#000000">spurious</text>
<text text-anchor="middle" x="155.9989" y="-210.8" font-family="Times,serif" font-size="14.00" fill="#000000">press</text>
</g>
<!-- 3 -->
<g id="node4" class="node">
<title>3</title>
<ellipse fill="none" stroke="#000000" cx="170.4989" cy="-18" rx="27" ry="18"/>
<text text-anchor="middle" x="170.4989" y="-14.3" font-family="Times,serif" font-size="14.00" fill="#000000">3</text>
</g>
<!-- 2&#45;&gt;3 -->
<g id="edge6" class="edge">
<title>2&#45;&gt;3</title>
<path fill="none" stroke="#000000" d="M126.0223,-102.0676C124.2161,-88.2923 123.6239,-69.1275 130.4989,-54 133.2893,-47.86 137.6866,-42.3203 142.5627,-37.5304"/>
<polygon fill="#000000" stroke="#000000" points="145.2231,-39.8542 150.457,-30.6424 140.6209,-34.5797 145.2231,-39.8542"/>
<text text-anchor="middle" x="163.9989" y="-72.8" font-family="Times,serif" font-size="14.00" fill="#000000">key pressed</text>
<text text-anchor="middle" x="163.9989" y="-57.8" font-family="Times,serif" font-size="14.00" fill="#000000">event</text>
</g>
<!-- 3&#45;&gt;0 -->
<g id="edge7" class="edge">
<title>3&#45;&gt;0</title>
<path fill="none" stroke="#000000" d="M185.3199,-33.2018C190.1808,-39.1895 194.979,-46.4402 197.4989,-54 223.7042,-132.6158 218.9121,-164.615 184.4989,-240 172.4083,-266.4854 148.276,-289.5695 129.3067,-304.8005"/>
<polygon fill="#000000" stroke="#000000" points="127.0329,-302.1348 121.2804,-311.0319 131.3257,-307.6641 127.0329,-302.1348"/>
<text text-anchor="middle" x="247.4989" y="-174.8" font-family="Times,serif" font-size="14.00" fill="#000000">key released</text>
<text text-anchor="middle" x="247.4989" y="-159.8" font-family="Times,serif" font-size="14.00" fill="#000000">event</text>
</g>
<!-- 3&#45;&gt;3 -->
<g id="edge8" class="edge">
<title>3&#45;&gt;3</title>
<path fill="none" stroke="#000000" d="M194.1135,-27.1461C205.472,-28.2753 215.4989,-25.2266 215.4989,-18 215.4989,-13.1447 210.9726,-10.1753 204.5572,-9.0918"/>
<polygon fill="#000000" stroke="#000000" points="204.1906,-5.5826 194.1135,-8.8539 204.0311,-12.5808 204.1906,-5.5826"/>
<text text-anchor="middle" x="248.9989" y="-14.3" font-family="Times,serif" font-size="14.00" fill="#000000"> &#160;no change</text>
</g>
</g>
</svg>
